<svg id="a02ccc2e-5fea-4971-94ea-957757d3f346" data-name="Layer 1" xmlns="http://www.w3.org/2000/svg" width="250" height="226.55119" viewBox="0 0 250 226.55119">
  <title>mockup-logo-light</title>
  <path d="M212.521,238.27559H37.14158V78.86633l87.69425-57.04,87.68513,57.04ZM46.481,228.93613H203.1815V83.93737L124.83583,32.97164,46.481,83.93737Z" transform="translate(0 -11.72441)"/>
  <path d="M41.81511,59.53228" transform="translate(0 -11.72441)" style="fill: none;stroke: #000;stroke-miterlimit: 10;stroke-width: 9.339460036333152px;fill-rule: evenodd"/>
  <rect x="57.84287" y="-11.46032" width="21.83538" height="153.16153" transform="translate(82.04483 -40.37077) rotate(54.62107)"/>
  <rect x="170.21222" y="-11.67244" width="21.83538" height="153.43022" transform="translate(339.0327 -56.70583) rotate(125.37893)"/>
  <path d="M185.743,238.27559H63.92869V145.92074H185.743ZM73.26815,228.93613H176.40351V155.2602H73.26815Z" transform="translate(0 -11.72441)"/>
  <rect x="120.16121" y="121.6486" width="9.34923" height="138.21769" transform="translate(-102.94952 169.74761) rotate(-54.46408)"/>
  <rect x="55.72698" y="186.08283" width="138.21769" height="9.34923" transform="translate(-87.64152 96.41486) rotate(-35.55067)"/>
  <rect x="123.6684" y="136.18462" width="2.33487" height="85.69684"/>
  <g>
    <path d="M124.83523,90.60211C118.29231,79.37438,99.894,82.65208,99.894,96.721c0,9.6876,11.579,19.59344,24.94127,32.856,13.36437-13.26252,24.94127-23.16836,24.94127-32.856C149.7765,82.60428,131.33036,79.45752,124.83523,90.60211Z" transform="translate(0 -11.72441)" style="fill: #ff2620"/>
    <path d="M112.59681,87.45773c6.9237.00214,10.64015,7.4693,12.23842,10.76426,1.60469-3.30994,5.28264-10.74286,12.25127-10.74286,4.40327,0,9.14459,2.80072,9.14459,8.94775,0,7.36445-10.15019,16.79788-21.39586,27.81461-11.24994-11.021-21.39585-20.4523-21.39585-27.81461C103.43938,90.70135,107.64367,87.4556,112.59681,87.45773Zm.00214-4.27917c-6.81031,0-13.43874,4.67928-13.43874,13.24832,0,9.9726,11.91749,20.16987,25.675,33.82256,13.75754-13.65269,25.675-23.85,25.675-33.82256C150.51026,87.845,143.884,83.2,137.0865,83.2a13.97974,13.97974,0,0,0-12.25127,6.928A13.962,13.962,0,0,0,112.599,83.17856Z" transform="translate(0 -11.72441)"/>
  </g>
</svg>
