<?xml version="1.0" encoding="utf-8"?>
<!-- Generator: Adobe Illustrator 23.0.2, SVG Export Plug-In . SVG Version: 6.00 Build 0)  -->
<svg version="1.1" id="b27c2bc9-c264-483d-8f45-4a5ea1e4cf8e"
	 xmlns="http://www.w3.org/2000/svg" xmlns:xlink="http://www.w3.org/1999/xlink" x="0px" y="0px" viewBox="0 0 250 226.6"
	 style="enable-background:new 0 0 250 226.6;" xml:space="preserve">
<style type="text/css">
	.st0{fill:#FFFFFF;}
	.st1{fill-rule:evenodd;clip-rule:evenodd;fill:#FFFFFF;stroke:#000000;stroke-width:9.3395;stroke-miterlimit:10;}
	.st2{fill:#FF2620;}
</style>
<title>mockup-logo-light</title>
<g>
	<path class="st0" d="M212.5,226.6H37.1V67.1l87.7-57l87.7,57V226.6z M46.5,217.2h156.7v-145l-78.3-51l-78.4,51V217.2z"/>
	<path class="st1" d="M41.8,47.8"/>
	
		<rect x="-7.8" y="42.5" transform="matrix(0.8153 -0.579 0.579 0.8153 -18.218 49.6711)" class="st0" width="153.2" height="21.8"/>
	
		<rect x="170.2" y="-23.4" transform="matrix(0.579 -0.8153 0.8153 0.579 32.7865 170.1306)" class="st0" width="21.8" height="153.4"/>
	<path class="st0" d="M185.7,226.6H63.9v-92.4h121.8V226.6z M73.3,217.2h103.1v-73.7H73.3V217.2z"/>
	
		<rect x="120.2" y="109.9" transform="matrix(0.5812 -0.8138 0.8138 0.5812 -93.4088 176.562)" class="st0" width="9.3" height="138.2"/>
	
		<rect x="55.7" y="174.4" transform="matrix(0.8136 -0.5814 0.5814 0.8136 -80.8247 105.9538)" class="st0" width="138.2" height="9.3"/>
	<rect x="123.7" y="136.2" class="st0" width="2.3" height="85.7"/>
	<path class="st2" d="M124.8,78.9c-6.5-11.2-24.9-7.9-24.9,6.1c0,9.7,11.6,19.6,24.9,32.9c13.4-13.3,24.9-23.2,24.9-32.9
		C149.8,70.9,131.3,67.7,124.8,78.9z"/>
	<path class="st0" d="M112.6,75.7c6.9,0,10.6,7.5,12.2,10.8c1.6-3.3,5.3-10.7,12.3-10.7c4.4,0,9.1,2.8,9.1,8.9
		c0,7.4-10.2,16.8-21.4,27.8c-11.2-11-21.4-20.5-21.4-27.8C103.4,79,107.6,75.7,112.6,75.7z M112.6,71.5c-6.8,0-13.4,4.7-13.4,13.2
		c0,10,11.9,20.2,25.7,33.8c13.8-13.7,25.7-23.8,25.7-33.8c0-8.6-6.6-13.2-13.4-13.2c-5-0.1-9.7,2.6-12.3,6.9
		C122.3,74.1,117.6,71.4,112.6,71.5z"/>
</g>
</svg>
